<?xml version="1.0" encoding="utf-8"?>
<svg width="127" height="52" viewBox="0 0 127 52" fill="none" xmlns="http://www.w3.org/2000/svg">
  <defs>
    <clipPath id="clip_path_1">
      <rect width="127" height="52" />
    </clipPath>
  </defs>
  <g clip-path="url(#clip_path_1)" transform="translate(0 -3.273)">
    <path d="M32.4141 10.4766L32.4141 48.4219L23.7891 48.4219L23.7773 22.8047L20.3438 48.4219L14.2266 48.4219L10.6055 23.3906L10.5938 48.4219L1.96875 48.4219L1.96875 10.4766L14.7363 10.4766Q15.3043 13.8984 15.9075 18.5435L17.3086 28.1953L19.5762 10.4766L32.4141 10.4766ZM36.375 10.4766L43.7578 10.4766Q50.9063 10.4766 53.4258 11.1328Q55.9453 11.7891 57.2578 13.2891Q58.5703 14.7891 58.8984 16.6289Q59.2266 18.4688 59.2266 23.8594L59.2266 37.1484Q59.2266 42.2578 58.7461 43.9805Q58.2656 45.7031 57.0703 46.6758Q55.875 47.6484 54.1172 48.0352Q52.3594 48.4219 48.8203 48.4219L36.375 48.4219L36.375 10.4766ZM46.2422 16.9688L46.2422 41.9297Q48.375 41.9297 48.8672 41.0742Q49.3594 40.2188 49.3594 36.4219L49.3594 21.6797Q49.3594 19.1016 49.1953 18.375Q49.0313 17.6484 48.4453 17.3086Q47.8594 16.9688 46.2422 16.9688Z" transform="translate(4.615 0)" fill="#313EF9" />
    <path d="M8.36719 12.9902L8.08594 16.0576Q9.63281 12.7623 12.5684 12.5684L12.5684 20.7773Q10.6172 20.7773 9.70313 21.3047Q8.78906 21.832 8.57813 22.7725Q8.36719 23.7129 8.36719 27.1055L8.36719 36.3164L1.26563 36.3164L1.26563 12.9902L8.36719 12.9902ZM21.4629 7.85742L21.4629 11.5664L14.1504 11.5664L14.1504 7.85742L21.4629 7.85742ZM21.4629 12.9902L21.4629 36.3164L14.1504 36.3164L14.1504 12.9902L21.4629 12.9902ZM38.707 12.9902L35.3848 36.3164L26.1035 36.3164L22.5352 12.9902L28.877 12.9902L30.876 30.0234Q31.1108 28.144 31.6766 20.8683Q31.9787 16.8066 32.3652 12.9902L38.707 12.9902ZM55.8281 25.0664L46.6348 25.0664L46.6348 30.1113Q46.6348 31.6934 46.8633 32.1504Q47.0918 32.6074 47.7422 32.6074Q48.5508 32.6074 48.8232 32.001Q49.0957 31.3945 49.0957 29.6543L49.0957 26.5781L55.8281 26.5781L55.8281 28.3008Q55.8281 30.4629 55.5557 31.623Q55.2832 32.7832 54.2813 34.1016Q53.2793 35.4199 51.7412 36.0791Q50.2031 36.7383 47.8828 36.7383Q45.6328 36.7383 43.9102 36.0879Q42.1875 35.4375 41.2295 34.3037Q40.2715 33.1699 39.9023 31.8076Q39.5332 30.4453 39.5332 27.8438L39.5332 21.041Q39.5332 17.9824 40.3594 16.2158Q41.1855 14.4492 43.0664 13.5088Q44.9473 12.5684 47.3906 12.5684Q50.3789 12.5684 52.3213 13.7021Q54.2637 14.8359 55.0459 16.708Q55.8281 18.5801 55.8281 21.9727L55.8281 25.0664ZM48.709 21.2695L48.709 19.5645Q48.709 17.7539 48.5156 17.2266Q48.3223 16.6992 47.7246 16.6992Q46.9863 16.6992 46.8105 17.1475Q46.6348 17.5957 46.6348 19.5645L46.6348 21.2695L48.709 21.2695Z" transform="translate(65.552 12.105)" fill="#728AF5" />
  </g>
</svg>